<?xml version="1.0" encoding="UTF-8"?>
<svg xmlns="http://www.w3.org/2000/svg" version="1.1" viewBox="0 0 1080 1080">
  <!-- Generator: Adobe Illustrator 30.0.0, SVG Export Plug-In . SVG Version: 2.1.1 Build 123)  -->
  <defs>
    <style>
      .st0 {
        fill: #67b6df;
      }

      .st1 {
        fill: #182f50;
      }

      .st2 {
        fill: #6bb7e1;
      }
    </style>
  </defs>
  <g id="FitPilot">
    <g id="FitPilot1" data-name="FitPilot">
      <path class="st1" d="M277.5,617.92v29.97h52.49v21.06h-52.49v41.31h-26.24v-113.4h85.7v21.06h-59.46Z"/>
      <path class="st1" d="M348.3,596.86c0-7.94,6.32-14.09,15.71-14.09s15.71,5.83,15.71,13.61c0,8.42-6.32,14.58-15.71,14.58s-15.71-6.16-15.71-14.09ZM351.38,623.1h25.27v87.16h-25.27v-87.16Z"/>
      <path class="st1" d="M456.35,706.05c-5.18,3.73-12.8,5.51-20.57,5.51-20.57,0-32.56-10.53-32.56-31.27v-35.8h-13.45v-19.44h13.45v-21.22h25.27v21.22h21.71v19.44h-21.71v35.48c0,7.45,4.05,11.5,10.85,11.5,3.73,0,7.45-1.13,10.21-3.24l6.8,17.82Z"/>
      <path class="st1" d="M570.72,638c0,25.27-18.95,40.99-49.25,40.99h-22.84v31.27h-26.24v-113.4h49.09c30.29,0,49.25,15.71,49.25,41.15ZM544.16,638c0-12.47-8.1-19.76-24.14-19.76h-21.38v39.37h21.38c16.04,0,24.14-7.29,24.14-19.6Z"/>
      <path class="st1" d="M584.49,596.86c0-7.94,6.32-14.09,15.71-14.09s15.71,5.83,15.71,13.61c0,8.42-6.32,14.58-15.71,14.58s-15.71-6.16-15.71-14.09ZM587.57,623.1h25.27v87.16h-25.27v-87.16Z"/>
      <path class="st1" d="M636.33,590.05h25.27v120.21h-25.27v-120.21Z"/>
      <path class="st1" d="M678.61,666.68c0-26.24,20.25-44.88,47.95-44.88s47.79,18.63,47.79,44.88-20.09,44.88-47.79,44.88-47.95-18.63-47.95-44.88ZM748.76,666.68c0-15.07-9.56-24.14-22.19-24.14s-22.36,9.07-22.36,24.14,9.72,24.14,22.36,24.14,22.19-9.07,22.19-24.14Z"/>
      <path class="st1" d="M847.42,706.05c-5.18,3.73-12.8,5.51-20.57,5.51-20.57,0-32.56-10.53-32.56-31.27v-35.8h-13.45v-19.44h13.45v-21.22h25.27v21.22h21.71v19.44h-21.71v35.48c0,7.45,4.05,11.5,10.85,11.5,3.73,0,7.45-1.13,10.21-3.24l6.8,17.82Z"/>
    </g>
  </g>
  <g id="Circulo">
    <circle id="Circulo1" data-name="Circulo" class="st2" cx="551.23" cy="326.53" r="22.67"/>
  </g>
  <g id="Alas">
    <path id="Alas1" data-name="Alas" class="st1" d="M353.3,317.15l129,64.2c9.22,5.82,12.63,17.52,13.5,31.8-4.04-11.79-12.3-17.7-32.1-26.85l-119.85-57.15c5.7,26.55,19.69,45.45,43.35,62.1,7.35,6.9,53.65,24.87,88.05,37.95,10,4.86,15.73,14.37,16.95,28.8-2.25-5.7-13.96-12.47-29.25-17.55-33.97-11.98-59.92-22.98-73.35-30.15,8.47,30.77,30.46,50.93,66.15,60.3,33.95,7.85,45.4,27.78,42.88,55.2l45.52-99c9.9-35.5,1.19-61.96-29.76-77.6l-205.8-102.4c4.37,30.32,15.2,51.28,44.7,70.35Z"/>
  </g>
  <g id="Letra_P">
    <path id="Letra_P1" data-name="Letra_P" class="st0" d="M710.3,413.9c-.22-30.36-18.45-49.05-49.5-51.6h-109.95c10.88,15.67,13.5,34.65,9.9,58.2,9.19-5.08,27.6-5.61,50.76-4.4l7.44-27.74c.79-3.18,3.16-4.79,6.91-5.06h6.83c6.15,1.28,6.83,6,5.92,10.05l-16.71,64.26c-1.82,6.84-4.28,9.6-9.69,10.74h-4.5c-2.73-.62-5.14-1.49-6.38-3.43-1.17-1.83-1.27-4.64-.78-7.92l6.16-23h-32.01c-8.1.9-13.57,4.43-18.6,8.55-6.18,5.49-10.99,12.4-14.2,20.95l-37.1,80.9h48.6l25.24-52.93.67-1.37h63.19c40.05-3.49,69.5-40.69,67.8-76.2ZM642.95,458.6h-6.9c-4-.48-5.61-3.1-4.21-8.4l12.86-48.16c.3-3.04,2.23-3.93,4.85-3.94h7.5c3.16,1.11,3.89,2.9,3.5,6.37l-13.26,49.67c-.51,2.81-2.1,4.09-4.34,4.46ZM673.59,423.44l-4.09,17.31c-.59,2.67-1.84,3.71-3.47,3.79h-4.33c-2.58-.12-4.21-1.46-3.2-6.13l4.28-16.37c.61-3.2,2.12-4.51,4.32-4.38l2.55.1c3.57.6,4.81,2.54,3.94,5.67Z"/>
  </g>
</svg>